<?xml version="1.0" encoding="UTF-8" standalone="no"?>
<!DOCTYPE svg PUBLIC "-//W3C//DTD SVG 1.1//EN" "http://www.w3.org/Graphics/SVG/1.1/DTD/svg11.dtd">
<svg width="100%" height="100%" viewBox="0 0 512 512" version="1.1" xmlns="http://www.w3.org/2000/svg" xmlns:xlink="http://www.w3.org/1999/xlink" xml:space="preserve" xmlns:serif="http://www.serif.com/" style="fill-rule:evenodd;clip-rule:evenodd;stroke-linejoin:round;stroke-miterlimit:2;">
    <g id="base">
        <path d="M410.326,369.484L438.018,52.262C435.418,79.733 354.922,101.78 256,101.78C157.078,101.78 76.582,79.733 73.982,52.262L101.674,369.484C39.912,383.956 0,406.899 0,432.73C0,476.51 114.615,512 256,512C397.385,512 512,476.51 512,432.73C512,406.899 472.088,383.956 410.326,369.484Z" style="fill:rgb(77,77,77);fill-rule:nonzero;"/>
        <ellipse cx="256" cy="50.89" rx="182.086" ry="50.89" style="fill:rgb(90,90,90);"/>
        <path d="M256,493.419C124.767,493.419 16.617,462.841 1.759,423.44C0.61,426.488 0,429.587 0,432.731C0,476.51 114.615,512 256,512C397.385,512 512,476.51 512,432.731C512,429.588 511.39,426.489 510.241,423.441C495.384,462.841 387.233,493.419 256,493.419Z" style="fill:rgb(112,112,112);fill-rule:nonzero;"/>
    </g>
    <g id="bottom" transform="matrix(1,0,0,1.18559,0,-81.3705)">
        <path d="M256,376.225C175.168,376.225 108.492,359.294 98.876,337.43L103.984,395.947C103.984,419.412 172.044,438.433 256,438.433C339.956,438.433 408.016,419.411 408.016,395.947L413.124,337.43C403.508,359.294 336.832,376.225 256,376.225Z" style="fill:rgb(145,220,71);fill-rule:nonzero;stroke:rgb(99,170,50);stroke-width:1px;"/>
        <path d="M256,376.225C175.168,376.225 108.492,359.294 98.876,337.43L100.266,353.452C119.339,373.821 172.044,389.433 256,389.433C339.956,389.433 391.915,372.378 411.899,354.59L413.124,337.43C403.508,359.294 336.832,376.225 256,376.225Z" style="fill:rgb(99,170,50);fill-rule:nonzero;stroke:rgb(99,170,50);stroke-width:1px;"/>
    </g>
    <g id="middle" transform="matrix(1.07539,0,0,1.33337,-19.9867,-265.771)">
        <g transform="matrix(1.00111,0,0,0.995228,-0.110061,2.09205)">
            <path d="M256,376.225C175.168,376.225 108.492,359.294 98.876,337.43L103.984,395.947C103.984,419.412 172.044,438.433 256,438.433C339.956,438.433 408.016,419.411 408.016,395.947L413.124,337.43C403.508,359.294 336.832,376.225 256,376.225Z" style="fill:rgb(145,220,71);fill-rule:nonzero;stroke:rgb(99,170,50);stroke-width:1px;"/>
        </g>
        <path d="M256,376.225C175.168,376.225 108.492,359.294 98.876,337.43L100.266,353.452C119.339,373.821 172.044,389.433 256,389.433C339.956,389.433 391.915,372.378 411.899,354.59L413.124,337.43C403.508,359.294 336.832,376.225 256,376.225Z" style="fill:rgb(99,170,50);fill-rule:nonzero;stroke:rgb(99,170,50);stroke-width:1px;"/>
    </g>
    <g id="up" transform="matrix(1.1493,0,0,1.29704,-38.0564,-378.908)">
        <path d="M256,376.225C175.168,376.225 108.492,359.294 98.876,337.43L103.984,395.947C103.984,419.412 172.044,438.433 256,438.433C339.956,438.433 408.016,419.411 408.016,395.947L413.124,337.43C403.508,359.294 336.832,376.225 256,376.225Z" style="fill:rgb(145,220,71);fill-rule:nonzero;stroke:rgb(99,170,50);stroke-width:1px;"/>
        <path d="M256,376.225C175.168,376.225 108.492,359.294 98.876,337.43L100.266,353.452C119.339,373.821 172.044,389.433 256,389.433C339.956,389.433 391.915,372.378 411.899,354.59L413.124,337.43C403.508,359.294 336.832,376.225 256,376.225Z" style="fill:rgb(99,170,50);fill-rule:nonzero;stroke:rgb(99,170,50);stroke-width:1px;"/>
    </g>
</svg>
