<?xml version="1.0" encoding="UTF-8" standalone="no"?>
<!DOCTYPE svg PUBLIC "-//W3C//DTD SVG 1.1//EN" "http://www.w3.org/Graphics/SVG/1.1/DTD/svg11.dtd">
<svg width="100%" height="100%" viewBox="0 0 383 383" version="1.1" xmlns="http://www.w3.org/2000/svg" xmlns:xlink="http://www.w3.org/1999/xlink" xml:space="preserve" xmlns:serif="http://www.serif.com/" style="fill-rule:evenodd;clip-rule:evenodd;stroke-linecap:round;stroke-linejoin:round;stroke-miterlimit:1.5;">
    <g transform="matrix(1,0,0,1,-8.82559,-8.82559)">
        <g id="top" transform="matrix(0.802426,0,0,0.802426,1.52607,8.99305)">
            <circle cx="247.342" cy="238.037" r="152.658" style="fill:rgb(123,123,123);"/>
        </g>
        <g id="cinta1">
            <g id="ancho" transform="matrix(0.818351,0.818351,-0.707107,0.707107,153.937,-100.628)">
                <rect x="90.581" y="147.084" width="238.54" height="70.405" style="fill:rgb(159,222,79);stroke:rgb(114,177,55);stroke-width:1.39px;"/>
            </g>
            <g id="sombra" transform="matrix(0.818351,0.818351,-0.155445,0.155445,72.7968,-19.4873)">
                <rect x="90.581" y="147.084" width="238.54" height="70.405" style="fill:rgb(114,177,55);"/>
            </g>
        </g>
        <g id="cinta2" transform="matrix(6.12323e-17,-1,1,6.12323e-17,-3.22668,396.773)">
            <g id="ancho1" serif:id="ancho" transform="matrix(0.818351,0.818351,-0.707107,0.707107,153.937,-100.628)">
                <rect x="90.581" y="147.084" width="238.54" height="70.405" style="fill:rgb(159,222,79);stroke:rgb(114,177,55);stroke-width:1.85px;"/>
            </g>
            <g id="sombra1" serif:id="sombra" transform="matrix(0.818351,0.818351,-0.155445,0.155445,72.7968,-19.4873)">
                <rect x="90.581" y="147.084" width="238.54" height="70.405" style="fill:rgb(114,177,55);"/>
            </g>
        </g>
        <g id="base" transform="matrix(1.02304,0,0,1.02304,-53.04,-43.5201)">
            <circle cx="247.342" cy="238.037" r="152.658" style="fill:none;stroke:rgb(87,87,87);stroke-width:68.42px;"/>
        </g>
    </g>
</svg>
